<svg id="Calque_1" data-name="Calque 1" xmlns="http://www.w3.org/2000/svg" viewBox="0 0 890.49 322.85"><defs><style>.cls-1{fill:#ffc715;}.cls-2{fill:#406390;}</style></defs><path class="cls-1" d="M782.59,314.72A184.51,184.51,0,0,1,789.44,284c.88-2.93,2.55-7,3.56-9.89.47-1.47,1.47-3.41,2-4.84l2.12-4.81.53-1.2c1.38-2.68,3.49-6.65,4.87-9.33l.68-1.13,1.36-2.26a166.72,166.72,0,0,1,37.55-44,173.16,173.16,0,0,1,38.31-24.09l1.28,2.71c11.41,24.38,24.11,51.17,35.88,75.52l36.27,75.36-17.07-2.14c23.66-34.08,48.24-69,72.56-102.59,10.25-14.28,23.39-32,33.77-46.27,44.74,30,75.11,73.66,81.7,127.88a171.46,171.46,0,0,1-107.54,180.35c-1.86.66-6.21,2.3-8,2.92l-8.1,2.53-5.47,1.41c-3,.83-7.92,1.77-11,2.42-1.93.28-6.49,1-8.33,1.31a175,175,0,0,1-104.59-19c-61.39-32.25-98.28-101.2-89.24-170.14Zm0,0a156.38,156.38,0,0,0,57.22,141.09,158.52,158.52,0,0,0,62.65,30.53c32.25,7.39,66.8,4.83,97.21-8.19,106.67-45.54,127.44-185.35,37.24-258.76l22-2.88c-7.57,9.49-18.66,23.42-26.19,32.66-29.73,36.84-60.84,74-91.28,110.29-13.06-34.59-36.89-98.8-49.95-133-4.93-13-10-26-15-39l3.79,1.5a157.66,157.66,0,0,0-72,57.7c-1,1.57-3.32,5.1-4.25,6.6l-.71,1.1-.63,1.15c-1.2,2.21-3.25,5.88-4.42,8l-.55,1.19-2.22,4.75c-.4.81-1.28,2.78-1.67,3.56-.87,2.23-2.43,6.36-3.29,8.57-1.07,2.77-2.27,7.17-3.19,10a186.07,186.07,0,0,0-4.73,23.12Z" transform="translate(-235.66 -182.49)"/><path class="cls-2" d="M299.12,409.74c0,13.55-6.06,18.54-13.91,21.39H249.56c-7.84-2.85-13.9-7.84-13.9-21.39V324.18c0-13.55,6.06-18.54,13.9-21.39h35.65c7.85,2.85,13.91,7.84,13.91,21.39v28.88H279.87V322.57l-3.93-3.92H258.83l-3.92,3.92v88.78l3.92,3.92h17.11l3.93-3.92V382.11h19.25Z" transform="translate(-235.66 -182.49)"/><path class="cls-2" d="M353.31,422.4,344,431.13H326c-7.85-2.85-13.91-7.84-13.91-21.39V391.92c0-13.55,6.06-18.54,13.91-21.4H344.4a20.83,20.83,0,0,1,8.91,5.71V348.78l-3.92-3.92H335.66l-3.74,3.92v11.58h-18v-9.44c0-13.55,6.06-18.54,13.91-21.39h29.41c7.84,2.85,13.91,7.84,13.91,21.39v80.21H353.31Zm-19.25-5.88h14.26l5-3.93V389.06l-3.92-3.74H334.06l-3.92,3.74v23.53Z" transform="translate(-235.66 -182.49)"/><path class="cls-2" d="M383.08,360.54v-9.62c0-13.55,6.06-18.54,13.9-21.39h30.31c7.84,2.85,13.9,7.84,13.9,21.39V363H423.37v-15l-3.92-3.92H404.83l-3.92,3.92v15.69l3.38,3.39,27.63,11.05c7.13,4.1,9.27,6.77,9.27,19.07v12.48c0,13.55-6.06,18.54-13.9,21.39H397c-7.84-2.85-13.9-7.84-13.9-21.39V396.55h17.83v16l3.92,3.93h14.62l3.92-3.93V394.41L420,390.85l-27.63-11.23C384.86,375.16,383.08,372.49,383.08,360.54Z" transform="translate(-235.66 -182.49)"/><path class="cls-2" d="M498.42,431.13h-31.2c-7.84-2.85-13.9-7.84-13.9-21.39V350.92c0-13.55,6.06-18.54,13.9-21.39h31.2c7.84,2.85,13.9,7.84,13.9,21.39v32.26H471.14v29.41l3.92,3.93h15.33l3.93-3.93V394.41h18v15.33C512.32,423.29,506.26,428.28,498.42,431.13ZM471.14,370h23.18V348.06l-3.93-3.92H475.06l-3.92,3.92Zm6.06-51.16v-2.32L483.62,301h18l-12.47,17.83Z" transform="translate(-235.66 -182.49)"/><path class="cls-2" d="M571.68,431.13H540.49c-7.85-2.85-13.91-7.84-13.91-21.39V350.92c0-13.55,6.06-18.54,13.91-21.39h31.19c7.85,2.85,13.91,7.84,13.91,21.39v58.82C585.59,423.29,579.53,428.28,571.68,431.13Zm-27.27-18.54,3.92,3.93h15.33l3.92-3.93V348.06l-3.92-3.92H548.33l-3.92,3.92Z" transform="translate(-235.66 -182.49)"/><path class="cls-2" d="M599.85,302.79h17.83V431.13H599.85Z" transform="translate(-235.66 -182.49)"/><path class="cls-2" d="M677,431.13h-31.2c-7.84-2.85-13.9-7.84-13.9-21.39V350.92c0-13.55,6.06-18.54,13.9-21.39H677c7.84,2.85,13.9,7.84,13.9,21.39v58.82C690.94,423.29,684.88,428.28,677,431.13Zm-27.28-18.54,3.92,3.93H669l3.93-3.93V348.06L669,344.14H653.68l-3.92,3.92Z" transform="translate(-235.66 -182.49)"/><path class="cls-2" d="M758.86,452.52H715.54c-7.84-2.67-13.9-7.3-13.9-19.61V430.6c0-9.27,4.28-14.26,10.87-17.47-3.74-2.67-5.88-6.6-5.88-12.48V399.4c0-5.88,2.32-10.87,7.13-14.08-5.17-3.21-8.56-8.56-8.56-18.72V350.92c0-13.55,6.06-18.54,13.91-21.39h29.41c3.74,1.42,7.31,3.2,9.8,6.41,2.32-3.21,5.89-5,9.63-6.41h5.71v16.39l-1.79,1.79h-9.45V366.6c0,13.55-6.06,18.54-13.9,21.39H723V399.4l3.74,3.75h32.09c7.84,2.85,13.9,7.84,13.9,21.39v6.59C772.76,444.68,766.7,449.67,758.86,452.52Zm-8-14.61,3.92-3.92v-12.3l-3.92-3.93h-28a17.32,17.32,0,0,1-2.85-.89l-2.68,2.68V434l3.93,3.92Zm-6.24-91.45-3.92-3.74H727.13l-3.92,3.74v24.6l3.92,3.74h13.55l3.92-3.74Z" transform="translate(-235.66 -182.49)"/><path class="cls-2" d="M840.15,409.74c0,13.55-6.06,18.54-13.91,21.39H795.05c-7.85-2.85-13.91-7.84-13.91-21.39V329.53H799v83.06l3.92,3.93h15.33l3.92-3.93V329.53h18Z" transform="translate(-235.66 -182.49)"/><path class="cls-2" d="M899.33,431.13h-31.2c-7.84-2.85-13.9-7.84-13.9-21.39V350.92c0-13.55,6.06-18.54,13.9-21.39h31.2c7.84,2.85,13.9,7.84,13.9,21.39v32.26H872.06v29.41l3.92,3.93h15.33l3.92-3.93V394.41h18v15.33C913.23,423.29,907.17,428.28,899.33,431.13ZM872.06,370h23.17V348.06l-3.92-3.92H876l-3.92,3.92Z" transform="translate(-235.66 -182.49)"/></svg>